<?xml version="1.0" standalone="no"?>
<!DOCTYPE svg PUBLIC "-//W3C//DTD SVG 20010904//EN"
 "http://www.w3.org/TR/2001/REC-SVG-20010904/DTD/svg10.dtd">
<svg version="1.0" xmlns="http://www.w3.org/2000/svg"
 width="1080.000000pt" height="1080.000000pt" viewBox="0 0 1080.000000 1080.000000"
 preserveAspectRatio="xMidYMid meet">

<g transform="translate(0.000000,1080.000000) scale(0.100000,-0.100000)"
fill="#000000" stroke="none">
<path d="M5165 10770 c-1576 -68 -3026 -815 -4005 -2063 -566 -722 -946 -1612
-1079 -2527 -65 -442 -70 -973 -16 -1430 109 -906 466 -1800 1014 -2535 170
-227 298 -374 525 -600 293 -293 498 -463 813 -673 543 -363 1133 -618 1773
-766 836 -193 1738 -179 2569 40 1157 305 2194 1002 2920 1963 887 1174 1251
2666 1006 4124 -158 936 -559 1805 -1179 2552 -133 159 -510 536 -666 665
-750 620 -1582 1008 -2522 1175 -357 63 -781 91 -1153 75z m-3852 -4748 c22
-24 439 -1178 440 -1215 0 -15 -3 -30 -6 -34 -12 -11 -110 -15 -147 -6 -35 9
-35 10 -91 169 l-57 159 -249 3 -248 2 -53 -159 c-50 -151 -55 -160 -84 -170
-62 -22 -145 -9 -154 23 -6 27 421 1216 444 1234 10 7 48 12 102 12 71 0 90
-3 103 -18z m1788 8 c18 -10 19 -26 19 -428 0 -461 4 -495 60 -578 69 -99 228
-137 362 -85 45 17 104 78 129 134 24 52 24 55 29 500 4 383 7 449 20 457 20
13 127 13 151 0 18 -10 19 -26 19 -443 0 -346 -3 -445 -15 -495 -55 -232 -244
-357 -516 -339 -201 13 -336 107 -401 282 -22 59 -23 71 -26 520 -3 428 -2
460 14 472 21 16 127 17 155 3z m1682 -8 c22 -24 439 -1178 440 -1215 0 -15
-3 -30 -6 -34 -12 -11 -110 -15 -147 -6 -35 9 -35 10 -91 169 l-57 159 -249 3
-248 2 -53 -159 c-50 -151 -55 -160 -84 -170 -62 -22 -145 -9 -154 23 -6 27
421 1216 444 1234 10 7 48 12 102 12 71 0 90 -3 103 -18z m888 8 c18 -10 19
-27 19 -555 l0 -545 228 0 c164 0 231 -3 240 -12 15 -15 16 -102 2 -129 -10
-18 -24 -19 -313 -19 -166 0 -307 4 -313 8 -32 21 -34 51 -34 641 0 523 2 591
16 605 18 19 124 22 155 6z m930 0 c18 -10 19 -28 19 -630 l0 -618 -36 -12
c-40 -13 -119 -7 -140 11 -12 9 -14 121 -14 620 0 539 2 609 16 623 18 19 124
22 155 6z m1962 -8 c22 -24 439 -1178 440 -1215 0 -15 -3 -30 -6 -34 -12 -11
-110 -15 -147 -6 -35 9 -35 10 -91 169 l-57 159 -249 3 -248 2 -53 -159 c-50
-151 -55 -160 -84 -170 -62 -22 -145 -9 -154 23 -6 27 421 1216 444 1234 10 7
48 12 102 12 71 0 90 -3 103 -18z m-5892 -19 c12 -33 6 -97 -11 -118 -10 -12
-47 -15 -191 -15 l-179 0 -2 -547 -3 -548 -43 -9 c-25 -5 -59 -5 -85 0 l-42 9
-3 548 -2 547 -179 0 c-144 0 -181 3 -191 15 -17 21 -23 85 -11 118 l11 27
460 0 460 0 11 -27z m5047 15 c7 -7 12 -41 12 -82 l0 -71 -291 -455 c-160
-250 -294 -461 -296 -467 -4 -10 59 -13 294 -13 219 0 302 -3 311 -12 15 -15
16 -102 2 -129 -10 -18 -25 -19 -405 -19 -331 0 -396 2 -408 15 -21 20 -29 76
-18 124 6 26 112 202 300 495 160 251 291 458 291 461 0 3 -123 5 -274 5 -236
0 -277 2 -290 16 -19 19 -22 114 -4 132 9 9 109 12 388 12 279 0 379 -3 388
-12z m2090 -2 c76 -21 152 -67 189 -115 61 -78 80 -210 47 -320 -18 -63 -87
-142 -149 -173 -22 -11 -42 -22 -43 -23 -2 -2 14 -19 36 -39 49 -45 83 -109
165 -313 82 -203 89 -226 72 -250 -20 -27 -147 -26 -173 2 -10 11 -45 88 -77
170 -81 210 -98 246 -135 289 -52 58 -96 76 -190 76 l-80 0 0 -270 0 -269 -39
-12 c-45 -13 -124 -5 -140 15 -8 10 -11 187 -9 616 3 582 4 602 22 616 28 20
428 20 504 0z"/>
<path d="M1099 5530 l-95 -280 199 0 c112 0 197 4 195 9 -1 5 -46 131 -98 280
-52 149 -97 271 -100 271 -3 0 -48 -126 -101 -280z"/>
<path d="M4569 5530 l-95 -280 199 0 c112 0 197 4 195 9 -1 5 -46 131 -98 280
-52 149 -97 271 -100 271 -3 0 -48 -126 -101 -280z"/>
<path d="M8349 5530 l-95 -280 199 0 c109 0 197 4 195 8 -1 5 -46 131 -98 280
-52 150 -97 272 -100 272 -3 0 -48 -126 -101 -280z"/>
<path d="M9470 5675 l0 -195 103 0 c113 0 158 9 207 43 50 33 72 70 78 126 7
71 -5 116 -39 155 -43 50 -101 66 -236 66 l-113 0 0 -195z"/>
</g>
</svg>
